<svg width="20" height="20" viewBox="0 0 20 20" fill="none" xmlns="http://www.w3.org/2000/svg">
<g clip-path="url(#clip0_706_9512)">
<path d="M16.6668 2.5H3.3335C1.95278 2.5 0.833496 3.61929 0.833496 5V16.6667C0.833496 18.0474 1.95278 19.1667 3.3335 19.1667H16.6668C18.0475 19.1667 19.1668 18.0474 19.1668 16.6667V5C19.1668 3.61929 18.0475 2.5 16.6668 2.5Z" stroke="#1C120B" stroke-width="2" stroke-linecap="round" stroke-linejoin="round"/>
<path d="M0.833496 7.5H19.1668" stroke="#1C120B" stroke-width="2" stroke-linecap="round" stroke-linejoin="round"/>
<path d="M10 4.16683V0.833496" stroke="#1C120B" stroke-width="2" stroke-linecap="round" stroke-linejoin="round"/>
<path d="M5 4.16683V0.833496" stroke="#1C120B" stroke-width="2" stroke-linecap="round" stroke-linejoin="round"/>
<path d="M15 4.16683V0.833496" stroke="#1C120B" stroke-width="2" stroke-linecap="round" stroke-linejoin="round"/>
<path d="M4.16699 11.667H5.83366" stroke="#1C120B" stroke-width="2" stroke-linecap="round" stroke-linejoin="round"/>
<path d="M9.16699 11.667H10.8337" stroke="#1C120B" stroke-width="2" stroke-linecap="round" stroke-linejoin="round"/>
<path d="M14.167 11.667H15.8337" stroke="#1C120B" stroke-width="2" stroke-linecap="round" stroke-linejoin="round"/>
<path d="M4.16699 15H5.83366" stroke="#1C120B" stroke-width="2" stroke-linecap="round" stroke-linejoin="round"/>
<path d="M9.16699 15H10.8337" stroke="#1C120B" stroke-width="2" stroke-linecap="round" stroke-linejoin="round"/>
<path d="M14.167 15H15.8337" stroke="#1C120B" stroke-width="2" stroke-linecap="round" stroke-linejoin="round"/>
</g>
</svg>
